<?xml version="1.0" encoding="UTF-8"?>
<svg version="1.1" xmlns="http://www.w3.org/2000/svg" width="850" height="850">
<circle cx="425" cy="425" r="425" fill="white" />
<path d="M0 0 C1.14361496 0.00273422 1.14361496 0.00273422 2.31033325 0.00552368 C52.93245868 0.2083478 101.29324996 18.75787557 138.59765625 53.16015625 C141.55051417 55.87639116 144.5893928 58.4881985 147.63671875 61.09765625 C160.17537694 73.16797747 170.62182997 88.08173584 178.9375 103.3125 C179.27587891 103.92883301 179.61425781 104.54516602 179.96289062 105.18017578 C205.15942598 151.7070477 209.58391681 206.89769912 194.80859375 257.50488281 C188.28389384 278.53460507 177.83100788 298.50106186 164.9375 316.3125 C164.53708496 316.8684082 164.13666992 317.42431641 163.72412109 317.99707031 C157.41045897 326.67803789 150.38292515 334.59165838 142.9375 342.3125 C142.1340918 343.1487793 142.1340918 343.1487793 141.31445312 344.00195312 C134.25085666 351.31752093 126.99612595 358.08489606 118.9375 364.3125 C117.81631195 365.20951756 116.69522368 366.10665985 115.57421875 367.00390625 C89.35300935 387.65044532 59.10339503 401.9115755 27.9375 413.3125 C25.26893591 414.30753154 22.6031492 415.30967764 19.9375 416.3125 C20.51798096 416.82224365 21.09846191 417.3319873 21.6965332 417.85717773 C28.2031096 423.63460751 34.42261972 429.64219681 40.5612793 435.8059082 C42.1302236 437.38024155 43.70448558 438.94911589 45.27929688 440.51757812 C50.18121342 445.4166033 55.00112 450.34459836 59.47973633 455.64038086 C61.05729226 457.449907 62.72381179 459.13203636 64.4375 460.8125 C66.73076036 463.07047943 68.90178028 465.37246504 71 467.8125 C75.08785979 472.55552468 79.38364124 477.09808197 83.66650391 481.6640625 C87.11280674 485.34306206 90.5203082 489.04926083 93.875 492.8125 C96.86481227 496.16153186 99.95064286 499.35844188 103.15672302 502.49928284 C104.92106486 504.29576546 106.56202576 506.15383196 108.19946289 508.06616211 C111.69132756 512.07954389 115.35433769 515.87451079 119.12109375 519.62890625 C119.78029312 520.28906235 120.43949249 520.94921844 121.1186676 521.62937927 C122.50146835 523.01285506 123.88551076 524.39509083 125.27075195 525.77612305 C127.36980343 527.86981669 129.4634594 529.96879874 131.55664062 532.06835938 C132.91113786 533.42219571 134.26594531 534.77572175 135.62109375 536.12890625 C136.23593124 536.74576797 136.85076874 537.3626297 137.48423767 537.9981842 C141.24349121 541.73760367 145.11984879 545.28934089 149.13877869 548.74845886 C151.33080703 550.65449204 153.44005823 552.63782861 155.54931641 554.63427734 C162.66152424 561.34715502 170.138501 567.42085453 177.9375 573.3125 C178.67307129 573.87259766 179.40864258 574.43269531 180.16650391 575.00976562 C190.41794484 582.79567013 200.76978411 589.91808203 211.9375 596.3125 C212.89140625 596.90160156 213.8453125 597.49070312 214.828125 598.09765625 C254.16809887 622.21811509 302.36956899 632.49120251 347.9375 626.3125 C348.5975 628.9525 349.2575 631.5925 349.9375 634.3125 C302.71778195 657.84150334 244.25392326 652.09296303 195.51416016 635.92407227 C161.48231971 624.26177231 132.38741507 605.52157506 105.9375 581.3125 C104.55111328 580.06533203 104.55111328 580.06533203 103.13671875 578.79296875 C93.16592029 569.7730279 83.26670535 560.49293414 74.56640625 550.22265625 C72.61512284 547.9344606 70.58932313 545.7215094 68.5625 543.5 C63.82982208 538.25394684 59.37928988 532.80486975 54.9375 527.3125 C53.45860389 525.52061 51.97943634 523.728944 50.5 521.9375 C46.04641813 516.48913181 41.74320526 510.9323075 37.47900391 505.33544922 C35.71078346 503.01497494 33.93932203 500.69698986 32.16796875 498.37890625 C25.57947719 489.75030728 19.01102505 481.10799095 12.51611328 472.40869141 C9.72181253 468.6720064 6.90329432 464.95540022 4.0625 461.25390625 C-2.41190057 452.81614121 -8.84637687 444.36339308 -15 435.6875 C-15.50208984 434.98310791 -16.00417969 434.27871582 -16.52148438 433.55297852 C-18.43341962 430.82941729 -20.00421481 428.48735558 -21.0625 425.3125 C-22.07570313 425.60898437 -23.08890625 425.90546875 -24.1328125 426.2109375 C-29.98379608 427.67046574 -35.94260583 428.17254289 -41.93408203 428.74511719 C-43.92690907 428.93648298 -45.91854859 429.14008511 -47.91015625 429.34375 C-54.99995734 430.04064118 -61.94242005 430.38840224 -69.0625 430.3125 C-68.1281601 484.40166457 -65.30668769 538.3219917 -62.0625 592.3125 C-66.79165649 594.31503296 -66.79165649 594.31503296 -69.22924805 594.29223633 C-72.10656177 592.75452692 -72.39203689 590.68122123 -73.39453125 587.63671875 C-73.79712158 586.43055908 -74.19971191 585.22439941 -74.61450195 583.98168945 C-75.03600807 582.65488462 -75.45613865 581.32764214 -75.875 580 C-76.31654632 578.63432507 -76.75819804 577.26868422 -77.19995117 575.90307617 C-90.20697451 535.22499228 -96.31015141 492.66631545 -100.9375 450.3125 C-101.05754395 449.22332275 -101.17758789 448.13414551 -101.30126953 447.01196289 C-101.94410712 440.75597082 -102.20334969 434.60030844 -102.0625 428.3125 C-103.3 428.209375 -104.5375 428.10625 -105.8125 428 C-119.32918421 426.40238258 -135.48471964 421.7673168 -144.8046875 411.10546875 C-150.29611173 403.27763111 -151.93269197 395.80894278 -151.0625 386.3125 C-149.01409498 377.42738014 -144.01747548 371.45574436 -136.40234375 366.625 C-127.11954263 361.62752968 -116.6558476 358.15461213 -106.0625 358.3125 C-106.06694122 357.21036163 -106.07138245 356.10822327 -106.07595825 354.97268677 C-106.11708689 344.4170997 -106.14675679 333.86152956 -106.16612434 323.30587959 C-106.17641705 317.88340965 -106.19029853 312.46100601 -106.21337891 307.03857422 C-106.31953502 281.38735291 -106.12050139 255.89206152 -104.0625 230.3125 C-103.94881073 228.88780396 -103.94881073 228.88780396 -103.83282471 227.43432617 C-103.4133983 222.3608637 -102.89867745 217.30687416 -102.3125 212.25 C-102.22979858 211.52643311 -102.14709717 210.80286621 -102.06188965 210.05737305 C-98.32946148 177.72588767 -92.85692479 144.60609946 -78.0625 115.3125 C-77.54945313 114.26191406 -77.03640625 113.21132812 -76.5078125 112.12890625 C-67.9424423 95.43800919 -54.2821684 83.06777872 -36.453125 77.10546875 C-30.53555534 75.72152101 -24.57898452 75.20524681 -18.9375 77.6875 C-16.0095945 80.2250181 -15.72819622 82.36209899 -15.4375 86.125 C-15.53562067 97.84341148 -22.45077393 108.94201888 -27.453125 119.2578125 C-27.83863525 120.05695068 -28.22414551 120.85608887 -28.62133789 121.67944336 C-29.33158393 123.13972642 -30.05316828 124.59460239 -30.79077148 126.04125977 C-37.52444597 139.6947273 -41.18568412 154.70524298 -44.4375 169.5 C-44.62437378 170.34032776 -44.81124756 171.18065552 -45.00378418 172.04644775 C-58.79198707 234.34531909 -64.52529606 297.70753408 -68.0625 361.3125 C-66.93199219 361.41304688 -65.80148437 361.51359375 -64.63671875 361.6171875 C-59.78044576 362.22995969 -55.43711056 363.70940663 -50.875 365.4375 C-50.04057373 365.75170898 -49.20614746 366.06591797 -48.34643555 366.38964844 C-30.42929701 373.30170381 -13.09723477 384.64483775 0.73046875 398.05078125 C2.35081237 399.67718881 2.35081237 399.67718881 4.9375 401.3125 C9.7635818 400.137454 14.09810326 397.87036333 18.5 395.625 C19.20398926 395.26760742 19.90797852 394.91021484 20.63330078 394.54199219 C22.06590204 393.81192589 23.49723459 393.07936431 24.92724609 392.34423828 C26.69301944 391.43797666 28.46516276 390.54414891 30.23828125 389.65234375 C50.07195635 379.39528433 67.82706348 365.681452 83.9375 350.3125 C84.78957031 349.51328125 85.64164062 348.7140625 86.51953125 347.890625 C93.41369216 341.24617385 99.2006159 333.94639156 104.9375 326.3125 C105.3603125 325.76110352 105.783125 325.20970703 106.21875 324.64160156 C138.83742673 282.00797174 151.62256298 225.42445353 146.57128906 172.47363281 C139.87734514 123.973852 110.62965931 75.1722079 71.9375 45.3125 C40.81178854 22.33037091 5.35144279 9.46429943 -33.765625 15 C-38.60583877 15.83811221 -43.33596237 16.98116657 -48.0625 18.3125 C-48.83094238 18.52680664 -49.59938477 18.74111328 -50.39111328 18.96191406 C-70.45922808 24.73648783 -89.18149351 34.74098628 -105.0625 48.3125 C-105.87203125 48.97636719 -106.6815625 49.64023438 -107.515625 50.32421875 C-125.75153105 65.83620802 -138.24532086 87.57773615 -140.84375 111.48828125 C-141.620072 125.06005339 -139.20799881 136.70474526 -134.01953125 149.296875 C-125.00035941 171.39574627 -125.00035941 171.39574627 -129.18359375 182.2109375 C-132.56093842 188.45307589 -136.6431858 192.76983889 -143.37890625 195.12109375 C-150.8900976 197.01358484 -157.36985878 196.08780828 -164.3125 192.75 C-172.90499209 185.13392746 -176.44514166 174.43204983 -178.0625 163.3125 C-180.31141385 124.46367641 -168.55049162 94.48574287 -142.9921875 65.55859375 C-135.25768053 56.94093391 -126.99250298 49.59751865 -117.78662109 42.62207031 C-116.16784036 41.39251213 -114.56195027 40.14603492 -112.95703125 38.8984375 C-105.9541748 33.51447125 -98.72911801 28.69767845 -91.0625 24.3125 C-90.37833008 23.9191748 -89.69416016 23.52584961 -88.98925781 23.12060547 C-61.31093264 7.40182293 -31.76755679 -0.1586791 0 0 Z M-133.62890625 379.83203125 C-137.83388952 384.56413493 -138.40410702 388.1124163 -138.265625 394.3671875 C-137.70838215 399.70385945 -133.60342805 403.2371458 -129.69921875 406.53515625 C-121.51090247 412.05468797 -112.80497817 414.23000243 -103.0625 415.3125 C-103.7225 400.7925 -104.3825 386.2725 -105.0625 371.3125 C-116.08075154 371.3125 -125.4204952 371.86925844 -133.62890625 379.83203125 Z M-69.0625 379.3125 C-69.0625 392.5125 -69.0625 405.7125 -69.0625 419.3125 C-63.15544486 419.3125 -57.62425636 419.21080513 -51.8125 418.5 C-51.08812744 418.41379395 -50.36375488 418.32758789 -49.61743164 418.23876953 C-42.97641175 417.39706311 -36.54192697 416.0027853 -30.0625 414.3125 C-39.03073171 400.35251667 -51.49758605 385.94329294 -67.0625 379.3125 C-67.7225 379.3125 -68.3825 379.3125 -69.0625 379.3125 Z " fill="#000000" transform="translate(345.0625,119.6875)"/>
</svg>
